<?xml version="1.0" encoding="UTF-8" standalone="no"?>
<!-- Generator: Adobe Illustrator 19.0.0, SVG Export Plug-In . SVG Version: 6.00 Build 0)  -->

<svg
   xmlns:dc="http://purl.org/dc/elements/1.1/"
   xmlns:cc="http://creativecommons.org/ns#"
   xmlns:rdf="http://www.w3.org/1999/02/22-rdf-syntax-ns#"
   xmlns:svg="http://www.w3.org/2000/svg"
   xmlns="http://www.w3.org/2000/svg"
   xmlns:sodipodi="http://sodipodi.sourceforge.net/DTD/sodipodi-0.dtd"
   xmlns:inkscape="http://www.inkscape.org/namespaces/inkscape"
   version="1.1"
   id="Layer_1"
   x="0px"
   y="0px"
   viewBox="0 0 512 512"
   style="enable-background:new 0 0 512 512;"
   xml:space="preserve"
   inkscape:version="0.48.4 r9939"
   width="100%"
   height="100%"
   sodipodi:docname="gate.svg"><metadata
     id="metadata53"><rdf:RDF><cc:Work
         rdf:about=""><dc:format>image/svg+xml</dc:format><dc:type
           rdf:resource="http://purl.org/dc/dcmitype/StillImage" /></cc:Work></rdf:RDF></metadata><defs
     id="defs51" /><sodipodi:namedview
     pagecolor="#ffffff"
     bordercolor="#666666"
     borderopacity="1"
     objecttolerance="10"
     gridtolerance="10"
     guidetolerance="10"
     inkscape:pageopacity="0"
     inkscape:pageshadow="2"
     inkscape:window-width="640"
     inkscape:window-height="480"
     id="namedview49"
     showgrid="false"
     inkscape:zoom="0.4609375"
     inkscape:cx="256"
     inkscape:cy="256"
     inkscape:window-x="0"
     inkscape:window-y="24"
     inkscape:window-maximized="0"
     inkscape:current-layer="Layer_1" /><g
     id="g3"
     style="fill:#ffffff"><g
       id="g5"
       style="fill:#ffffff"><g
         id="g7"
         style="fill:#ffffff"><path
           d="M7.843,448.284v15.685h72.045v-15.685H71.72V319.878h8.168v-15.685H7.843v15.685h8.168v128.406H7.843z M31.696,319.878     h24.34v128.406h-24.34V319.878z"
           id="path9"
           style="fill:#ffffff" /><path
           d="M424.269,264.167h-16.335V239.99c0-83.777-68.157-151.934-151.934-151.934S104.066,156.213,104.066,239.99v24.178H87.731     v-8.005H0v39.701h87.731v-16.011h16.335V488.31H87.731v-16.011H0V512h87.731v-8.005h16.335h15.847h272.172h15.848h16.335V512     h87.731v-39.701h-87.731v16.011h-16.335V279.853h16.335v16.011h87.731v-39.701h-87.729V264.167z M72.045,280.178h-56.36v-8.33     h56.36V280.178z M72.045,496.315h-56.36v-8.33h56.36V496.315z M263.842,103.972c11.193,0.638,22.03,2.629,32.345,5.819v123.461     c-8.451-8.76-19.724-14.773-32.345-16.554V103.972z M215.812,109.793L215.812,109.793c10.316-3.19,21.152-5.181,32.345-5.819     v112.726c-12.62,1.782-23.894,7.794-32.345,16.554V109.793z M152.097,488.31h-0.001h-32.182h-0.162V239.99     c0-33.531,12.182-64.266,32.345-88.028V488.31z M200.127,488.31h-32.345V136.247c9.708-8.268,20.582-15.205,32.345-20.515V488.31     z M248.157,488.31h-32.345V310.768c8.451,8.76,19.724,14.773,32.345,16.554V488.31z M296.188,488.31h-32.345V327.322     c12.62-1.782,23.894-7.794,32.345-16.554V488.31z M256,312.198c-22.159,0-40.188-18.028-40.188-40.188     c0-22.16,18.028-40.188,40.188-40.188s40.188,18.028,40.188,40.188S278.16,312.198,256,312.198z M344.218,488.31h-32.345V115.731     c11.763,5.31,22.636,12.247,32.345,20.515V488.31z M392.249,488.31h-0.001h-0.162h-32.182V151.962     c20.162,23.762,32.345,54.496,32.345,88.028V488.31z M439.954,487.985h56.36v8.33h-56.36V487.985z M439.955,271.848h56.36v8.33     h-56.36V271.848z"
           id="path11"
           style="fill:#ffffff" /><path
           d="M504.157,319.878v-15.685h-72.045v15.685h8.168v128.406h-8.168v15.685h72.045v-15.685h-8.168V319.878H504.157z      M480.304,448.284h-24.34V319.878h24.34V448.284z"
           id="path13"
           style="fill:#ffffff" /><polygon
           points="267.435,249.483 256,260.918 244.565,249.483 233.473,260.574 244.908,272.01 233.473,283.446 244.565,294.538      256,283.102 267.435,294.538 278.527,283.446 267.092,272.01 278.527,260.574    "
           id="polygon15"
           style="fill:#ffffff" /><path
           d="M79.895,232.147l-8.126-0.007c2.003-97.227,79.674-176.183,176.388-180.254v28.003h15.685V51.886     c96.716,4.071,174.388,83.031,176.388,180.261h-8.119v15.685h72.045v-15.685h-8.308c-1.951-61.163-26.677-118.381-70.15-161.856     C380.37,24.964,320.104,0,256,0S131.63,24.964,86.301,70.292C42.839,113.754,18.117,170.95,16.153,232.093l-8.303-0.007     l-0.015,15.685l72.045,0.062L79.895,232.147z M31.848,232.106c1.954-56.957,25.044-110.222,65.545-150.724     C139.758,39.018,196.086,15.685,256,15.685c59.913,0,116.242,23.333,158.608,65.697c40.51,40.511,63.602,93.792,65.547,150.765     h-24.238C453.86,123.652,364.976,36.022,256,36.022c-108.97,0-197.849,87.619-199.916,196.104L31.848,232.106z"
           id="path17"
           style="fill:#ffffff" /></g></g></g><g
     id="g19"
     style="fill:#ffffff" /><g
     id="g21"
     style="fill:#ffffff" /><g
     id="g23"
     style="fill:#ffffff" /><g
     id="g25"
     style="fill:#ffffff" /><g
     id="g27"
     style="fill:#ffffff" /><g
     id="g29"
     style="fill:#ffffff" /><g
     id="g31"
     style="fill:#ffffff" /><g
     id="g33"
     style="fill:#ffffff" /><g
     id="g35"
     style="fill:#ffffff" /><g
     id="g37"
     style="fill:#ffffff" /><g
     id="g39"
     style="fill:#ffffff" /><g
     id="g41"
     style="fill:#ffffff" /><g
     id="g43"
     style="fill:#ffffff" /><g
     id="g45"
     style="fill:#ffffff" /><g
     id="g47"
     style="fill:#ffffff" /></svg>