<?xml version="1.0" encoding="UTF-8" standalone="no"?>
<!-- Generator: Adobe Illustrator 16.0.0, SVG Export Plug-In . SVG Version: 6.00 Build 0)  -->

<svg
   xmlns:dc="http://purl.org/dc/elements/1.1/"
   xmlns:cc="http://creativecommons.org/ns#"
   xmlns:rdf="http://www.w3.org/1999/02/22-rdf-syntax-ns#"
   xmlns:svg="http://www.w3.org/2000/svg"
   xmlns="http://www.w3.org/2000/svg"
   xmlns:sodipodi="http://sodipodi.sourceforge.net/DTD/sodipodi-0.dtd"
   xmlns:inkscape="http://www.inkscape.org/namespaces/inkscape"
   version="1.1"
   id="Capa_1"
   x="0px"
   y="0px"
   width="535.5px"
   height="535.5px"
   viewBox="0 0 535.5 535.5"
   style="enable-background:new 0 0 535.5 535.5;"
   xml:space="preserve"
   inkscape:version="0.48.4 r9939"
   sodipodi:docname="window.svg"><metadata
     id="metadata3063"><rdf:RDF><cc:Work
         rdf:about=""><dc:format>image/svg+xml</dc:format><dc:type
           rdf:resource="http://purl.org/dc/dcmitype/StillImage" /></cc:Work></rdf:RDF></metadata><defs
     id="defs3061" /><sodipodi:namedview
     pagecolor="#ffffff"
     bordercolor="#666666"
     borderopacity="1"
     objecttolerance="10"
     gridtolerance="10"
     guidetolerance="10"
     inkscape:pageopacity="0"
     inkscape:pageshadow="2"
     inkscape:window-width="640"
     inkscape:window-height="480"
     id="namedview3059"
     showgrid="false"
     inkscape:zoom="0.44070962"
     inkscape:cx="267.75"
     inkscape:cy="267.75"
     inkscape:window-x="0"
     inkscape:window-y="28"
     inkscape:window-maximized="0"
     inkscape:current-layer="Capa_1" /><g
     id="g3019"
     style="fill:#ffffff"><g
       id="g3021"
       style="fill:#ffffff"><rect
         x="162.562"
         y="95.625"
         width="210.375"
         height="344.25"
         id="rect3023"
         style="fill:#ffffff" /><path
         d="M382.5,449.438v5.527l153,69.777V10.758l-153,80.832V449.438z M449.438,88.664l57.375-24.882V191.47l-57.375,11.045    V88.664z M449.438,213.903l57.375-9.658v127.688l-57.375-4.169V213.903z M449.438,339.144l57.375,5.556v127.688l-57.375-19.393    V339.144z M401.625,113.698l38.25-18.962v110.332l-38.25,8.568V113.698z M401.625,223.628l38.25-7.525v110.333l-38.25-2.869    V223.628z M401.625,333.568l38.25,3.911v110.332l-38.25-14.305V333.568z"
         id="path3025"
         style="fill:#ffffff" /><path
         d="M0,524.742l153-69.777v-5.527V95.625V91.59L0,10.758V524.742z M95.625,94.736l38.25,18.962v99.938l-38.25-8.568V94.736z     M95.625,216.103l38.25,7.525v99.938l-38.25,2.869V216.103z M95.625,337.47l38.25-3.91v99.938l-38.25,14.306V337.47z     M28.688,63.782l57.375,24.882v113.851L28.688,191.47V63.782z M28.688,204.236l57.375,9.658v113.851l-57.375,4.169V204.236z     M28.688,344.699l57.375-5.556v113.852l-57.375,19.393V344.699z"
         id="path3027"
         style="fill:#ffffff" /></g></g><g
     id="g3029" /><g
     id="g3031" /><g
     id="g3033" /><g
     id="g3035" /><g
     id="g3037" /><g
     id="g3039" /><g
     id="g3041" /><g
     id="g3043" /><g
     id="g3045" /><g
     id="g3047" /><g
     id="g3049" /><g
     id="g3051" /><g
     id="g3053" /><g
     id="g3055" /><g
     id="g3057" /></svg>